<mxfile host="drawio-plugin" modified="2022-10-29T04:55:51.359Z" agent="5.0 (Windows NT 6.2; Win64; x64) AppleWebKit/537.36 (KHTML, like Gecko) Chrome/89.0.4389.114 Safari/537.36" etag="grr0jkM4_XLBH5LDKgi0" version="15.5.4" type="embed"><diagram id="F_gQ_7oDBF0sjKnGtIvj" name="Page-1"><mxGraphModel dx="1712" dy="1103" grid="1" gridSize="10" guides="1" tooltips="1" connect="1" arrows="1" fold="1" page="1" pageScale="1" pageWidth="827" pageHeight="1169" background="#114B5F" math="0" shadow="0"><root><mxCell id="0"/><mxCell id="1" parent="0"/><mxCell id="82" value="&lt;font color=&quot;#ffffff&quot;&gt;&lt;span style=&quot;font-size: 16px&quot;&gt;Visitor&lt;br&gt;&lt;/span&gt;&lt;/font&gt;" style="shape=umlFrame;whiteSpace=wrap;html=1;width=120;height=40;boundedLbl=1;verticalAlign=middle;align=left;spacingLeft=5;fillColor=#F45B69;strokeColor=#028090;fontColor=#E4FDE1;" parent="1" vertex="1"><mxGeometry y="240" width="820" height="670" as="geometry"/></mxCell><mxCell id="388" value="Client" style="html=1;rounded=0;sketch=0;fontColor=#E4FDE1;strokeColor=#028090;fillColor=#F45B69;align=center;" vertex="1" parent="1"><mxGeometry x="50" y="340" width="110" height="50" as="geometry"/></mxCell><mxCell id="389" value="Visitor" style="swimlane;fontStyle=1;align=center;verticalAlign=top;childLayout=stackLayout;horizontal=1;startSize=26;horizontalStack=0;resizeParent=1;resizeParentMax=0;resizeLast=0;collapsible=1;marginBottom=0;rounded=0;sketch=0;fontColor=#E4FDE1;strokeColor=#028090;fillColor=#F45B69;" vertex="1" parent="1"><mxGeometry x="350" y="280" width="270" height="86" as="geometry"/></mxCell><mxCell id="391" value="" style="line;strokeWidth=1;fillColor=none;align=left;verticalAlign=middle;spacingTop=-1;spacingLeft=3;spacingRight=3;rotatable=0;labelPosition=right;points=[];portConstraint=eastwest;rounded=0;sketch=0;fontColor=#E4FDE1;strokeColor=#028090;labelBackgroundColor=#114B5F;" vertex="1" parent="389"><mxGeometry y="26" width="270" height="8" as="geometry"/></mxCell><mxCell id="392" value="VisitorConcreteElementA(ConcreteElementA)" style="text;strokeColor=none;fillColor=none;align=left;verticalAlign=top;spacingLeft=4;spacingRight=4;overflow=hidden;rotatable=0;points=[[0,0.5],[1,0.5]];portConstraint=eastwest;rounded=0;sketch=0;fontColor=#E4FDE1;" vertex="1" parent="389"><mxGeometry y="34" width="270" height="26" as="geometry"/></mxCell><mxCell id="393" value="VisitorConcreteElementB(ConcreteElementB)" style="text;strokeColor=none;fillColor=none;align=left;verticalAlign=top;spacingLeft=4;spacingRight=4;overflow=hidden;rotatable=0;points=[[0,0.5],[1,0.5]];portConstraint=eastwest;rounded=0;sketch=0;fontColor=#E4FDE1;" vertex="1" parent="389"><mxGeometry y="60" width="270" height="26" as="geometry"/></mxCell><mxCell id="394" value="ConcreteVisitor1" style="swimlane;fontStyle=1;align=center;verticalAlign=top;childLayout=stackLayout;horizontal=1;startSize=26;horizontalStack=0;resizeParent=1;resizeParentMax=0;resizeLast=0;collapsible=1;marginBottom=0;rounded=0;sketch=0;fontColor=#E4FDE1;strokeColor=#028090;fillColor=#F45B69;" vertex="1" parent="1"><mxGeometry x="210" y="430" width="270" height="86" as="geometry"/></mxCell><mxCell id="395" value="" style="line;strokeWidth=1;fillColor=none;align=left;verticalAlign=middle;spacingTop=-1;spacingLeft=3;spacingRight=3;rotatable=0;labelPosition=right;points=[];portConstraint=eastwest;rounded=0;sketch=0;fontColor=#E4FDE1;strokeColor=#028090;labelBackgroundColor=#114B5F;" vertex="1" parent="394"><mxGeometry y="26" width="270" height="8" as="geometry"/></mxCell><mxCell id="396" value="VisitorConcreteElementA(ConcreteElementA)" style="text;strokeColor=none;fillColor=none;align=left;verticalAlign=top;spacingLeft=4;spacingRight=4;overflow=hidden;rotatable=0;points=[[0,0.5],[1,0.5]];portConstraint=eastwest;rounded=0;sketch=0;fontColor=#E4FDE1;" vertex="1" parent="394"><mxGeometry y="34" width="270" height="26" as="geometry"/></mxCell><mxCell id="397" value="VisitorConcreteElementB(ConcreteElementB)" style="text;strokeColor=none;fillColor=none;align=left;verticalAlign=top;spacingLeft=4;spacingRight=4;overflow=hidden;rotatable=0;points=[[0,0.5],[1,0.5]];portConstraint=eastwest;rounded=0;sketch=0;fontColor=#E4FDE1;" vertex="1" parent="394"><mxGeometry y="60" width="270" height="26" as="geometry"/></mxCell><mxCell id="402" value="ConcreteVisitor2" style="swimlane;fontStyle=1;align=center;verticalAlign=top;childLayout=stackLayout;horizontal=1;startSize=26;horizontalStack=0;resizeParent=1;resizeParentMax=0;resizeLast=0;collapsible=1;marginBottom=0;rounded=0;sketch=0;fontColor=#E4FDE1;strokeColor=#028090;fillColor=#F45B69;" vertex="1" parent="1"><mxGeometry x="530" y="430" width="270" height="86" as="geometry"/></mxCell><mxCell id="403" value="" style="line;strokeWidth=1;fillColor=none;align=left;verticalAlign=middle;spacingTop=-1;spacingLeft=3;spacingRight=3;rotatable=0;labelPosition=right;points=[];portConstraint=eastwest;rounded=0;sketch=0;fontColor=#E4FDE1;strokeColor=#028090;labelBackgroundColor=#114B5F;" vertex="1" parent="402"><mxGeometry y="26" width="270" height="8" as="geometry"/></mxCell><mxCell id="404" value="VisitorConcreteElementA(ConcreteElementA)" style="text;strokeColor=none;fillColor=none;align=left;verticalAlign=top;spacingLeft=4;spacingRight=4;overflow=hidden;rotatable=0;points=[[0,0.5],[1,0.5]];portConstraint=eastwest;rounded=0;sketch=0;fontColor=#E4FDE1;" vertex="1" parent="402"><mxGeometry y="34" width="270" height="26" as="geometry"/></mxCell><mxCell id="405" value="VisitorConcreteElementB(ConcreteElementB)" style="text;strokeColor=none;fillColor=none;align=left;verticalAlign=top;spacingLeft=4;spacingRight=4;overflow=hidden;rotatable=0;points=[[0,0.5],[1,0.5]];portConstraint=eastwest;rounded=0;sketch=0;fontColor=#E4FDE1;" vertex="1" parent="402"><mxGeometry y="60" width="270" height="26" as="geometry"/></mxCell><mxCell id="406" value="ObjectStructure" style="html=1;rounded=0;sketch=0;fontColor=#E4FDE1;strokeColor=#028090;fillColor=#F45B69;align=center;" vertex="1" parent="1"><mxGeometry x="120" y="560" width="110" height="50" as="geometry"/></mxCell><mxCell id="411" value="Element" style="swimlane;fontStyle=1;align=center;verticalAlign=top;childLayout=stackLayout;horizontal=1;startSize=26;horizontalStack=0;resizeParent=1;resizeParentMax=0;resizeLast=0;collapsible=1;marginBottom=0;rounded=0;sketch=0;fontColor=#E4FDE1;strokeColor=#028090;fillColor=#F45B69;" vertex="1" parent="1"><mxGeometry x="400" y="560" width="160" height="60" as="geometry"/></mxCell><mxCell id="413" value="" style="line;strokeWidth=1;fillColor=none;align=left;verticalAlign=middle;spacingTop=-1;spacingLeft=3;spacingRight=3;rotatable=0;labelPosition=right;points=[];portConstraint=eastwest;rounded=0;sketch=0;fontColor=#E4FDE1;strokeColor=#028090;labelBackgroundColor=#114B5F;" vertex="1" parent="411"><mxGeometry y="26" width="160" height="8" as="geometry"/></mxCell><mxCell id="414" value="Accept(Visitor)" style="text;strokeColor=none;fillColor=none;align=left;verticalAlign=top;spacingLeft=4;spacingRight=4;overflow=hidden;rotatable=0;points=[[0,0.5],[1,0.5]];portConstraint=eastwest;rounded=0;sketch=0;fontColor=#E4FDE1;" vertex="1" parent="411"><mxGeometry y="34" width="160" height="26" as="geometry"/></mxCell><mxCell id="415" value="ConcreteElementA" style="swimlane;fontStyle=1;align=center;verticalAlign=top;childLayout=stackLayout;horizontal=1;startSize=26;horizontalStack=0;resizeParent=1;resizeParentMax=0;resizeLast=0;collapsible=1;marginBottom=0;rounded=0;sketch=0;fontColor=#E4FDE1;strokeColor=#028090;fillColor=#F45B69;" vertex="1" parent="1"><mxGeometry x="280" y="680" width="160" height="86" as="geometry"/></mxCell><mxCell id="416" value="" style="line;strokeWidth=1;fillColor=none;align=left;verticalAlign=middle;spacingTop=-1;spacingLeft=3;spacingRight=3;rotatable=0;labelPosition=right;points=[];portConstraint=eastwest;rounded=0;sketch=0;fontColor=#E4FDE1;strokeColor=#028090;labelBackgroundColor=#114B5F;" vertex="1" parent="415"><mxGeometry y="26" width="160" height="8" as="geometry"/></mxCell><mxCell id="417" value="Accept(Visitor v)" style="text;strokeColor=none;fillColor=none;align=left;verticalAlign=top;spacingLeft=4;spacingRight=4;overflow=hidden;rotatable=0;points=[[0,0.5],[1,0.5]];portConstraint=eastwest;rounded=0;sketch=0;fontColor=#E4FDE1;" vertex="1" parent="415"><mxGeometry y="34" width="160" height="26" as="geometry"/></mxCell><mxCell id="419" value="OperationA()" style="text;strokeColor=none;fillColor=none;align=left;verticalAlign=top;spacingLeft=4;spacingRight=4;overflow=hidden;rotatable=0;points=[[0,0.5],[1,0.5]];portConstraint=eastwest;rounded=0;sketch=0;fontColor=#E4FDE1;" vertex="1" parent="415"><mxGeometry y="60" width="160" height="26" as="geometry"/></mxCell><mxCell id="420" value="ConcreteElementB" style="swimlane;fontStyle=1;align=center;verticalAlign=top;childLayout=stackLayout;horizontal=1;startSize=26;horizontalStack=0;resizeParent=1;resizeParentMax=0;resizeLast=0;collapsible=1;marginBottom=0;rounded=0;sketch=0;fontColor=#E4FDE1;strokeColor=#028090;fillColor=#F45B69;" vertex="1" parent="1"><mxGeometry x="510" y="680" width="160" height="86" as="geometry"/></mxCell><mxCell id="421" value="" style="line;strokeWidth=1;fillColor=none;align=left;verticalAlign=middle;spacingTop=-1;spacingLeft=3;spacingRight=3;rotatable=0;labelPosition=right;points=[];portConstraint=eastwest;rounded=0;sketch=0;fontColor=#E4FDE1;strokeColor=#028090;labelBackgroundColor=#114B5F;" vertex="1" parent="420"><mxGeometry y="26" width="160" height="8" as="geometry"/></mxCell><mxCell id="422" value="Accept(Visitor v)" style="text;strokeColor=none;fillColor=none;align=left;verticalAlign=top;spacingLeft=4;spacingRight=4;overflow=hidden;rotatable=0;points=[[0,0.5],[1,0.5]];portConstraint=eastwest;rounded=0;sketch=0;fontColor=#E4FDE1;" vertex="1" parent="420"><mxGeometry y="34" width="160" height="26" as="geometry"/></mxCell><mxCell id="423" value="OperationB()" style="text;strokeColor=none;fillColor=none;align=left;verticalAlign=top;spacingLeft=4;spacingRight=4;overflow=hidden;rotatable=0;points=[[0,0.5],[1,0.5]];portConstraint=eastwest;rounded=0;sketch=0;fontColor=#E4FDE1;" vertex="1" parent="420"><mxGeometry y="60" width="160" height="26" as="geometry"/></mxCell><mxCell id="424" value="v -&amp;gt; VisitorConcreteElementA(this)" style="shape=note2;boundedLbl=1;whiteSpace=wrap;html=1;size=25;verticalAlign=top;align=left;rounded=0;sketch=0;fontColor=#E4FDE1;strokeColor=#028090;fillColor=#F45B69;" vertex="1" parent="1"><mxGeometry x="281" y="830" width="200" height="60" as="geometry"/></mxCell><mxCell id="426" value="v -&amp;gt; VisitorConcreteElementB(this)" style="shape=note2;boundedLbl=1;whiteSpace=wrap;html=1;size=25;verticalAlign=top;align=left;rounded=0;sketch=0;fontColor=#E4FDE1;strokeColor=#028090;fillColor=#F45B69;" vertex="1" parent="1"><mxGeometry x="520" y="830" width="200" height="60" as="geometry"/></mxCell><mxCell id="428" value="" style="html=1;verticalAlign=bottom;labelBackgroundColor=none;endArrow=oval;endFill=0;rounded=1;sketch=0;fontColor=#E4FDE1;strokeColor=#028090;fillColor=#F45B69;curved=0;dashed=1;exitX=0.4;exitY=0;exitDx=0;exitDy=0;exitPerimeter=0;" edge="1" parent="1" source="424" target="417"><mxGeometry width="160" relative="1" as="geometry"><mxPoint x="90" y="800" as="sourcePoint"/><mxPoint x="250" y="800" as="targetPoint"/></mxGeometry></mxCell><mxCell id="429" value="" style="html=1;verticalAlign=bottom;labelBackgroundColor=none;endArrow=oval;endFill=0;rounded=1;sketch=0;fontColor=#E4FDE1;strokeColor=#028090;fillColor=#F45B69;curved=0;dashed=1;exitX=0.5;exitY=0;exitDx=0;exitDy=0;exitPerimeter=0;entryX=0.688;entryY=-0.128;entryDx=0;entryDy=0;entryPerimeter=0;" edge="1" parent="1" source="426" target="423"><mxGeometry width="160" relative="1" as="geometry"><mxPoint x="371" y="840" as="sourcePoint"/><mxPoint x="370.12621359223294" y="750" as="targetPoint"/></mxGeometry></mxCell><mxCell id="430" value="" style="html=1;verticalAlign=bottom;labelBackgroundColor=none;endArrow=block;endFill=0;rounded=1;sketch=0;fontColor=#E4FDE1;strokeColor=#028090;fillColor=#F45B69;curved=0;endSize=12;entryX=0.554;entryY=1.051;entryDx=0;entryDy=0;entryPerimeter=0;exitX=0.5;exitY=0;exitDx=0;exitDy=0;" edge="1" parent="1" source="415" target="414"><mxGeometry width="160" relative="1" as="geometry"><mxPoint x="330" y="650" as="sourcePoint"/><mxPoint x="490" y="650" as="targetPoint"/><Array as="points"><mxPoint x="360" y="660"/><mxPoint x="489" y="660"/></Array></mxGeometry></mxCell><mxCell id="431" value="" style="html=1;verticalAlign=bottom;labelBackgroundColor=none;endArrow=block;endFill=0;rounded=1;sketch=0;fontColor=#E4FDE1;strokeColor=#028090;fillColor=#F45B69;endSize=12;entryX=0.538;entryY=1.128;entryDx=0;entryDy=0;entryPerimeter=0;exitX=0.5;exitY=0;exitDx=0;exitDy=0;" edge="1" parent="1"><mxGeometry width="160" relative="1" as="geometry"><mxPoint x="592" y="679" as="sourcePoint"/><mxPoint x="488.0799999999999" y="622.328" as="targetPoint"/><Array as="points"><mxPoint x="592" y="659"/><mxPoint x="488" y="659"/></Array></mxGeometry></mxCell><mxCell id="432" value="" style="html=1;verticalAlign=bottom;labelBackgroundColor=none;endArrow=block;endFill=1;rounded=1;sketch=0;fontColor=#E4FDE1;endSize=12;strokeColor=#028090;fillColor=#F45B69;entryX=0;entryY=0.25;entryDx=0;entryDy=0;" edge="1" parent="1" target="411"><mxGeometry width="160" relative="1" as="geometry"><mxPoint x="230" y="575" as="sourcePoint"/><mxPoint x="390" y="580" as="targetPoint"/></mxGeometry></mxCell><mxCell id="433" value="" style="html=1;verticalAlign=bottom;labelBackgroundColor=none;endArrow=block;endFill=1;rounded=1;sketch=0;fontColor=#E4FDE1;endSize=12;strokeColor=#028090;fillColor=#F45B69;entryX=-0.005;entryY=0.178;entryDx=0;entryDy=0;exitX=1;exitY=0.25;exitDx=0;exitDy=0;entryPerimeter=0;" edge="1" parent="1" source="388" target="389"><mxGeometry width="160" relative="1" as="geometry"><mxPoint x="240" y="585" as="sourcePoint"/><mxPoint x="410" y="585" as="targetPoint"/><Array as="points"><mxPoint x="200" y="353"/><mxPoint x="200" y="295"/></Array></mxGeometry></mxCell><mxCell id="434" value="" style="html=1;verticalAlign=bottom;labelBackgroundColor=none;endArrow=block;endFill=1;rounded=1;sketch=0;fontColor=#E4FDE1;endSize=12;strokeColor=#028090;fillColor=#F45B69;entryX=0;entryY=0.5;entryDx=0;entryDy=0;exitX=0.25;exitY=1;exitDx=0;exitDy=0;" edge="1" parent="1" source="388" target="406"><mxGeometry width="160" relative="1" as="geometry"><mxPoint x="170" y="362.5" as="sourcePoint"/><mxPoint x="358.6500000000001" y="305.308" as="targetPoint"/><Array as="points"><mxPoint x="78" y="585"/></Array></mxGeometry></mxCell><mxCell id="435" value="" style="html=1;verticalAlign=bottom;labelBackgroundColor=none;endArrow=block;endFill=0;rounded=1;sketch=0;fontColor=#E4FDE1;endSize=12;strokeColor=#028090;fillColor=#F45B69;entryX=0.496;entryY=1.128;entryDx=0;entryDy=0;entryPerimeter=0;exitX=0.5;exitY=0;exitDx=0;exitDy=0;" edge="1" parent="1" source="394" target="393"><mxGeometry width="160" relative="1" as="geometry"><mxPoint x="220" y="400" as="sourcePoint"/><mxPoint x="380" y="400" as="targetPoint"/><Array as="points"><mxPoint x="345" y="400"/><mxPoint x="484" y="400"/></Array></mxGeometry></mxCell><mxCell id="436" value="" style="html=1;verticalAlign=bottom;labelBackgroundColor=none;endArrow=block;endFill=0;rounded=1;sketch=0;fontColor=#E4FDE1;endSize=12;strokeColor=#028090;fillColor=#F45B69;exitX=0.5;exitY=0;exitDx=0;exitDy=0;" edge="1" parent="1"><mxGeometry width="160" relative="1" as="geometry"><mxPoint x="669" y="430" as="sourcePoint"/><mxPoint x="484" y="370" as="targetPoint"/><Array as="points"><mxPoint x="669" y="400"/><mxPoint x="484" y="400"/></Array></mxGeometry></mxCell></root></mxGraphModel></diagram></mxfile>